<svg xmlns="http://www.w3.org/2000/svg" id="Layer_1" data-name="Layer 1" viewBox="0 0 156.97 49.61"><defs><style>      .cls-1 {        fill: #010101;      }      .cls-1, .cls-2, .cls-3, .cls-4 {        stroke-width: 0px;      }      .cls-2 {        display: none;        fill: #dc3626;      }      .cls-3 {        fill: #feda07;      }      .cls-4 {        fill: #231f20;      }    </style></defs><g><polygon class="cls-3" points="17.83 11.12 30.53 .79 40.03 8.03 48.04 1.94 60.96 12.05 13.89 48.87 .97 38.53 27.02 18.3 17.83 11.12"></polygon><path class="cls-2" d="M40.02,29.24l13.98-10.91-13.91-10.96-14.01,10.97,13.94,10.91ZM40.04,27.79l-6.54-5.09-.92-.72-4.65-3.64,12.17-9.53,12.05,9.53-12.1,9.45Z"></path><path class="cls-4" d="M30.68,1.44l8.71,6.82.7.55.7-.55,7.27-5.68,12.11,9.48L13.96,48.17,1.84,38.69l12.25-9.59h.01s.57-.44.57-.44l12.12-9.48,1.01-.8h0s.16-.14.16-.14l-1.13-.89-8.25-6.46L30.68,1.44M52.87,19.21l1.13-.88h0s8.02-6.28,8.02-6.28L48.06,1.13l-7.97,6.23L30.68,0h0l-13.96,10.92,9.4,7.35-.03.02h0s-12.12,9.48-12.12,9.48h-.01S0,38.69,0,38.69l13.96,10.92,13.05-10.2h0s7.44-5.81,7.44-5.81l.92-.72,4.1-3.2.55-.43.59-.46.36-.28h0s6.51-5.1,6.51-5.1l5.39-4.19Z"></path><g><path class="cls-4" d="M40.03,17.61c-.31,0-.57-.25-.57-.57v-8.23c0-.31.25-.57.57-.57s.57.25.57.57v8.23c0,.31-.25.57-.57.57Z"></path><path class="cls-4" d="M45.84,21.95c-.12,0-.25-.04-.35-.12l-5.5-4.3-5.35,4.18c-.25.19-.6.15-.8-.1-.19-.25-.15-.6.1-.8l6.05-4.73,6.2,4.85c.25.19.29.55.1.8-.11.14-.28.22-.45.22Z"></path></g><path class="cls-1" d="M54,20.71v6.35l-13.96,10.92-5.59-4.37.92-.72,4.1,3.21v-6.41l1.14-.89v7.31l11.55-9.03.71-.56v-5.79c0-.32.26-.56.57-.56s.56.24.57.56Z"></path><path class="cls-1" d="M40.04,29.1c-.12,0-.25-.04-.35-.12l-11.05-8.64c-.25-.19-.29-.55-.1-.8.19-.25.55-.29.8-.1l11.05,8.64c.25.19.29.55.1.8-.11.14-.28.22-.45.22Z"></path><path class="cls-1" d="M50.82,17.14c-.12,0-.25-.04-.35-.12l-10.95-8.64c-.25-.19-.29-.55-.1-.8.19-.25.55-.29.8-.1l10.95,8.64c.25.19.29.55.1.8-.11.14-.28.22-.45.22Z"></path><rect class="cls-1" x="25" y="12.66" width="16.87" height="1.14" transform="translate(-1.02 23.49) rotate(-38.18)"></rect></g><g><g><path class="cls-4" d="M74.15,16.41h.14l1.94-4.75h6.2l-5.22,10.07v4.2h-6.22v-4.22l-5.18-10.05h6.59l1.75,4.75Z"></path><path class="cls-4" d="M94.95,11.66v4.1h-5.36v1.12h5.3v3.63h-5.3v1.2h5.77v4.22h-11.99v-14.27h11.58Z"></path><path class="cls-4" d="M103.16,11.66v8.64h4.14v5.63h-10.36v-14.27h6.22Z"></path><path class="cls-4" d="M115.01,11.66v8.64h4.14v5.63h-10.36v-14.27h6.22Z"></path><path class="cls-4" d="M128.3,11.25c5.22,0,8.11,3.38,8.11,7.48s-2.9,7.6-8.11,7.6-8.12-3.38-8.12-7.48,2.9-7.61,8.12-7.61ZM128.3,20.98c1.1,0,1.69-.9,1.69-2.22s-.59-2.22-1.69-2.22-1.73.92-1.73,2.24.59,2.2,1.73,2.2Z"></path><path class="cls-4" d="M143.47,17.96l2.79-5.65h.88l2.81,5.65,1-6.3h6.01l-2.73,14.27h-5.1l-2.45-5.18-2.41,5.18h-5.12l-2.71-14.27h5.99l1.02,6.3Z"></path></g><g><path class="cls-4" d="M77.05,36.22c0-.84-.52-1.17-1.37-1.38l-.89-.22c-1.1-.27-1.72-.84-1.72-1.82,0-1.18.88-1.91,2.23-1.91.93,0,1.6.31,2.21.8l-.22.64c-.55-.58-1.24-.91-1.99-.91-.97,0-1.59.48-1.59,1.38,0,.58.25.98,1.25,1.24l.91.23c1.12.28,1.82.83,1.82,1.9,0,1.31-1.06,2.04-2.43,2.04-1.08,0-1.87-.46-2.38-.96l.21-.68c.54.65,1.26,1.12,2.17,1.12,1.03,0,1.79-.54,1.79-1.47Z"></path><path class="cls-4" d="M80.1,30.99h4.06v.52h-3.44v2.69h2.59v.52h-2.59v2.85h3.46v.52h-4.08v-7.11Z"></path><path class="cls-4" d="M86.56,30.99h.62v6.58h3.2v.52h-3.82v-7.11Z"></path><path class="cls-4" d="M92.61,30.99h3.8v.52h-3.18v2.8h2.65v.52h-2.65v3.27h-.62v-7.11Z"></path><path class="cls-4" d="M105.65,36.22c0-.84-.52-1.17-1.37-1.38l-.89-.22c-1.1-.27-1.72-.84-1.72-1.82,0-1.18.88-1.91,2.23-1.91.93,0,1.6.31,2.21.8l-.22.64c-.55-.58-1.24-.91-1.99-.91-.97,0-1.59.48-1.59,1.38,0,.58.25.98,1.25,1.24l.91.23c1.12.28,1.82.83,1.82,1.9,0,1.31-1.06,2.04-2.43,2.04-1.08,0-1.87-.46-2.38-.96l.21-.68c.54.65,1.26,1.12,2.17,1.12,1.03,0,1.79-.54,1.79-1.47Z"></path><path class="cls-4" d="M112.6,31.52h-2v6.58h-.62v-6.58h-1.94v-.52h4.55v.52Z"></path><path class="cls-4" d="M114.11,34.59c0-2.07.99-3.71,3.08-3.71s3.01,1.63,3.01,3.71c0,2.19-1.13,3.61-3.01,3.61s-3.08-1.42-3.08-3.61ZM117.16,37.67c1.22,0,2.41-.87,2.41-3.08s-1.18-3.18-2.41-3.18c-1.16,0-2.41.87-2.41,3.18s1.25,3.08,2.41,3.08Z"></path><path class="cls-4" d="M126.06,34.84c.38.17.59.51.84,1.14l.59,1.47c.06.17.15.23.37.23v.42h-.25c-.47,0-.61-.24-.7-.47l-.65-1.57c-.3-.74-.54-1.03-1.18-1.03h-1.76v3.07h-.62v-7.11h2.61c1.35,0,1.97.95,1.97,2.02s-.7,1.65-1.2,1.8v.03ZM123.3,34.52h1.93c.7,0,1.39-.36,1.39-1.5,0-.97-.57-1.51-1.39-1.51h-1.93v3Z"></path><path class="cls-4" d="M131.9,30.99h.65l2.55,7.11h-.73l-.62-1.85h-3.08l-.6,1.85h-.65l2.47-7.11ZM130.86,35.72h2.71l-1.38-4.04-1.33,4.04Z"></path><path class="cls-4" d="M137.29,34.59c0,2.04,1.06,3.09,2.65,3.09.8,0,1.5-.29,1.97-.71v-1.93h-2.19v-.52h2.76v2.72c-.62.54-1.44.96-2.55.96-1.92,0-3.27-1.23-3.27-3.61,0-2.22,1.31-3.71,3.18-3.71,1.13,0,2.03.54,2.52,1.06l-.26.63c-.62-.77-1.35-1.16-2.24-1.16-1.47,0-2.57,1.23-2.57,3.18Z"></path><path class="cls-4" d="M145.04,30.99h4.06v.52h-3.44v2.69h2.59v.52h-2.59v2.85h3.46v.52h-4.08v-7.11Z"></path></g></g></svg>